<?xml version="1.0" standalone="no"?><svg xmlns="http://www.w3.org/2000/svg" viewBox="0 0 1440 320"><path fill="#f3f4f5" fill-opacity="1" d="M0,64L20,85.3C40,107,80,149,120,144C160,139,200,85,240,96C280,107,320,181,360,208C400,235,440,213,480,186.7C520,160,560,128,600,128C640,128,680,160,720,165.3C760,171,800,149,840,128C880,107,920,85,960,101.3C1000,117,1040,171,1080,170.7C1120,171,1160,117,1200,96C1240,75,1280,85,1320,85.3C1360,85,1400,75,1420,69.3L1440,64L1440,0L1420,0C1400,0,1360,0,1320,0C1280,0,1240,0,1200,0C1160,0,1120,0,1080,0C1040,0,1000,0,960,0C920,0,880,0,840,0C800,0,760,0,720,0C680,0,640,0,600,0C560,0,520,0,480,0C440,0,400,0,360,0C320,0,280,0,240,0C200,0,160,0,120,0C80,0,40,0,20,0L0,0Z"></path></svg>